<?xml version="1.0" standalone="no"?><svg xmlns="http://www.w3.org/2000/svg" viewBox="0 0 1440 320"><path fill="#0099ff" fill-opacity="1" d="M0,256L30,229.3C60,203,120,149,180,149.3C240,149,300,203,360,197.3C420,192,480,128,540,117.3C600,107,660,149,720,170.7C780,192,840,192,900,170.7C960,149,1020,107,1080,80C1140,53,1200,43,1260,37.3C1320,32,1380,32,1410,32L1440,32L1440,320L1410,320C1380,320,1320,320,1260,320C1200,320,1140,320,1080,320C1020,320,960,320,900,320C840,320,780,320,720,320C660,320,600,320,540,320C480,320,420,320,360,320C300,320,240,320,180,320C120,320,60,320,30,320L0,320Z"></path></svg>